<svg width="32" height="30" viewBox="0 0 32 30" fill="none" xmlns="http://www.w3.org/2000/svg">
<path d="M3.59532 24.2625C5.14246 22.8639 6.9403 21.7622 8.98883 20.9573C11.0374 20.1524 13.2506 19.75 15.6287 19.75C18.0067 19.75 20.2199 20.1524 22.2685 20.9573C24.317 21.7622 26.1148 22.8639 27.662 24.2625V3.91667H3.59532V24.2625ZM15.6287 16.5833C17.2904 16.5833 18.7086 16.0424 19.8833 14.9604C21.058 13.8785 21.6453 12.5722 21.6453 11.0417C21.6453 9.51111 21.058 8.20486 19.8833 7.12292C18.7086 6.04097 17.2904 5.5 15.6287 5.5C13.9669 5.5 12.5487 6.04097 11.374 7.12292C10.1993 8.20486 9.61199 9.51111 9.61199 11.0417C9.61199 12.5722 10.1993 13.8785 11.374 14.9604C12.5487 16.0424 13.9669 16.5833 15.6287 16.5833ZM3.59532 29.25C2.64985 29.25 1.84046 28.9399 1.16717 28.3198C0.493873 27.6997 0.157227 26.9542 0.157227 26.0833V3.91667C0.157227 3.04583 0.493873 2.30035 1.16717 1.68021C1.84046 1.06007 2.64985 0.75 3.59532 0.75H27.662C28.6075 0.75 29.4169 1.06007 30.0901 1.68021C30.7634 2.30035 31.1001 3.04583 31.1001 3.91667V26.0833C31.1001 26.9542 30.7634 27.6997 30.0901 28.3198C29.4169 28.9399 28.6075 29.25 27.662 29.25H3.59532ZM7.03342 26.0833H24.2239V25.6875C23.0206 24.7639 21.6883 24.0712 20.2271 23.6094C18.7659 23.1476 17.2331 22.9167 15.6287 22.9167C14.0242 22.9167 12.4914 23.1476 11.0302 23.6094C9.56901 24.0712 8.23675 24.7639 7.03342 25.6875V26.0833ZM15.6287 13.4167C14.9124 13.4167 14.3036 13.1858 13.8022 12.724C13.3008 12.2622 13.0501 11.7014 13.0501 11.0417C13.0501 10.3819 13.3008 9.82118 13.8022 9.35938C14.3036 8.89757 14.9124 8.66667 15.6287 8.66667C16.3449 8.66667 16.9538 8.89757 17.4551 9.35938C17.9565 9.82118 18.2072 10.3819 18.2072 11.0417C18.2072 11.7014 17.9565 12.2622 17.4551 12.724C16.9538 13.1858 16.3449 13.4167 15.6287 13.4167Z" fill="#1C1B1F"/>
</svg>
