<svg width="34" height="40" viewBox="0 0 34 40" fill="none" xmlns="http://www.w3.org/2000/svg">
<path d="M17 39.333C17 37.0719 17.4357 34.9403 18.3072 32.9383C19.1774 30.9376 20.3611 29.1886 21.8583 27.6913C23.3556 26.1941 25.1052 25.0098 27.1072 24.1383C29.1079 23.2681 31.2389 22.833 33.5 22.833C33.5 25.0941 33.0649 27.2257 32.1947 29.2277C31.3232 31.2285 30.1389 32.9775 28.6417 34.4747C27.1444 35.9719 25.3954 37.1562 23.3947 38.0277C21.3927 38.8979 19.2611 39.333 17 39.333ZM21.4917 34.8413C23.2333 34.1997 24.7611 33.2219 26.075 31.908C27.3889 30.5941 28.3667 29.0663 29.0083 27.3247C27.2667 27.9663 25.7389 28.9441 24.425 30.258C23.1111 31.5719 22.1333 33.0997 21.4917 34.8413ZM17 39.333C17 37.0719 16.5649 34.9403 15.6947 32.9383C14.8232 30.9376 13.6389 29.1886 12.1417 27.6913C10.6444 26.1941 8.89544 25.0098 6.89467 24.1383C4.89267 23.2681 2.76111 22.833 0.5 22.833C0.5 25.0941 0.935111 27.2257 1.80533 29.2277C2.67678 31.2285 3.86111 32.9775 5.35833 34.4747C6.85556 35.9719 8.60456 37.1562 10.6053 38.0277C12.6073 38.8979 14.7389 39.333 17 39.333ZM12.5083 34.8413C10.7667 34.1997 9.23889 33.2219 7.925 31.908C6.61111 30.5941 5.63333 29.0663 4.99167 27.3247C6.73333 27.9663 8.26111 28.9441 9.575 30.258C10.8889 31.5719 11.8667 33.0997 12.5083 34.8413ZM23.1417 19.3038C23.7222 19.3038 24.2191 19.0973 24.6322 18.6842C25.0441 18.2723 25.25 17.7761 25.25 17.1955C25.25 16.7677 25.1351 16.3931 24.9053 16.0717C24.6768 15.7515 24.3792 15.4997 24.0125 15.3163L22.4083 14.5372C22.2861 15.2094 22.0649 15.8278 21.7447 16.3925C21.4232 16.9584 21.0028 17.4552 20.4833 17.883L21.95 18.9372C22.1028 19.0594 22.2788 19.1511 22.478 19.2122C22.676 19.2733 22.8972 19.3038 23.1417 19.3038ZM22.4083 12.7955L24.0125 12.0163C24.3792 11.833 24.6694 11.5733 24.8833 11.2372C25.0972 10.9011 25.2042 10.5344 25.2042 10.1372C25.2042 9.55662 25.0056 9.05979 24.6083 8.64667C24.2111 8.23479 23.7222 8.02884 23.1417 8.02884C22.8972 8.02884 22.6833 8.0594 22.5 8.12051C22.3167 8.18162 22.1333 8.27329 21.95 8.39551L20.4375 9.44967C20.9569 9.87745 21.3847 10.3663 21.7208 10.9163C22.0569 11.4663 22.2861 12.0927 22.4083 12.7955ZM15.1208 8.53301C15.4264 8.41079 15.7319 8.31912 16.0375 8.25801C16.3431 8.1969 16.6639 8.16634 17 8.16634C17.3361 8.16634 17.6569 8.1969 17.9625 8.25801C18.2681 8.31912 18.5736 8.41079 18.8792 8.53301L19.1083 6.51634C19.1694 5.96634 18.9788 5.49273 18.5363 5.09551C18.0927 4.69829 17.5806 4.49967 17 4.49967C16.4194 4.49967 15.9079 4.69829 15.4655 5.09551C15.0218 5.49273 14.8306 5.96634 14.8917 6.51634L15.1208 8.53301ZM17 15.4997C17.5194 15.4997 17.9552 15.3237 18.3072 14.9717C18.6579 14.6209 18.8333 14.1858 18.8333 13.6663C18.8333 13.1469 18.6579 12.7112 18.3072 12.3592C17.9552 12.0084 17.5194 11.833 17 11.833C16.4806 11.833 16.0454 12.0084 15.6947 12.3592C15.3427 12.7112 15.1667 13.1469 15.1667 13.6663C15.1667 14.1858 15.3427 14.6209 15.6947 14.9717C16.0454 15.3237 16.4806 15.4997 17 15.4997ZM17 22.833C17.5806 22.833 18.0927 22.6344 18.5363 22.2372C18.9788 21.84 19.1694 21.3663 19.1083 20.8163L18.8792 18.7997C18.5736 18.9219 18.2681 19.0136 17.9625 19.0747C17.6569 19.1358 17.3361 19.1663 17 19.1663C16.6639 19.1663 16.3431 19.1358 16.0375 19.0747C15.7319 19.0136 15.4264 18.9219 15.1208 18.7997L14.8917 20.8163C14.8306 21.3663 15.0218 21.84 15.4655 22.2372C15.9079 22.6344 16.4194 22.833 17 22.833ZM11.5917 12.7955C11.7139 12.0927 11.9357 11.4663 12.2572 10.9163C12.5774 10.3663 12.9972 9.87745 13.5167 9.44967L12.05 8.39551C11.8972 8.27329 11.7212 8.18162 11.522 8.12051C11.324 8.0594 11.1028 8.02884 10.8583 8.02884C10.2778 8.02884 9.78156 8.23479 9.36967 8.64667C8.95656 9.05979 8.75 9.55662 8.75 10.1372C8.75 10.5344 8.86489 10.9011 9.09467 11.2372C9.32322 11.5733 9.62083 11.833 9.9875 12.0163L11.5917 12.7955ZM10.8583 19.258C11.1028 19.258 11.3167 19.2348 11.5 19.1883C11.6833 19.1431 11.8667 19.0441 12.05 18.8913L13.5625 17.883C13.0431 17.4552 12.6153 16.9663 12.2792 16.4163C11.9431 15.8663 11.7139 15.24 11.5917 14.5372L9.9875 15.3163C9.62083 15.4997 9.33055 15.7594 9.11667 16.0955C8.90278 16.4316 8.79583 16.7983 8.79583 17.1955C8.82639 17.7761 9.03294 18.265 9.4155 18.6622C9.79683 19.0594 10.2778 19.258 10.8583 19.258ZM17 26.4997C15.8083 26.4997 14.7316 26.1709 13.7697 25.5133C12.8066 24.857 12.1111 23.9941 11.6833 22.9247C11.5306 22.9247 11.3931 22.932 11.2708 22.9467C11.1486 22.9626 11.0111 22.9705 10.8583 22.9705C9.26944 22.9705 7.90972 22.4052 6.77917 21.2747C5.64861 20.1441 5.08333 18.7844 5.08333 17.1955C5.08333 16.5538 5.19028 15.9348 5.40417 15.3383C5.61806 14.7431 5.93889 14.1858 6.36667 13.6663C5.96944 13.1469 5.66389 12.589 5.45 11.9925C5.23611 11.3973 5.12917 10.7788 5.12917 10.1372C5.12917 8.54829 5.68711 7.18856 6.803 6.05801C7.91767 4.92745 9.26944 4.36217 10.8583 4.36217C11.0111 4.36217 11.1486 4.36951 11.2708 4.38417C11.3931 4.40006 11.5306 4.40801 11.6833 4.40801C12.1111 3.33856 12.8066 2.47506 13.7697 1.81751C14.7316 1.16117 15.8083 0.833008 17 0.833008C18.1917 0.833008 19.2691 1.16117 20.2322 1.81751C21.1941 2.47506 21.8889 3.33856 22.3167 4.40801C22.4694 4.40801 22.6069 4.40006 22.7292 4.38417C22.8514 4.36951 22.9889 4.36217 23.1417 4.36217C24.7306 4.36217 26.0823 4.92745 27.197 6.05801C28.3129 7.18856 28.8708 8.54829 28.8708 10.1372C28.8708 10.7788 28.7712 11.3973 28.572 11.9925C28.374 12.589 28.0611 13.1469 27.6333 13.6663C28.0306 14.1858 28.3361 14.7431 28.55 15.3383C28.7639 15.9348 28.8708 16.5538 28.8708 17.1955C28.8708 18.7844 28.3129 20.1441 27.197 21.2747C26.0823 22.4052 24.7306 22.9705 23.1417 22.9705C22.9889 22.9705 22.8514 22.9626 22.7292 22.9467C22.6069 22.932 22.4694 22.9247 22.3167 22.9247C21.8889 23.9941 21.1941 24.857 20.2322 25.5133C19.2691 26.1709 18.1917 26.4997 17 26.4997Z" fill="#1C1B1F"/>
</svg>
